<mxfile host="app.diagrams.net" modified="2023-11-02T10:46:35.382Z" agent="Mozilla/5.0 (Windows NT 10.0; Win64; x64) AppleWebKit/537.36 (KHTML, like Gecko) Chrome/118.0.0.0 Safari/537.36" etag="tb0ImrSW8Hu-ci2zgz7i" version="22.0.8" type="device">
  <diagram name="Page-1" id="5Bo6vp9cNzRSpQrRqvRJ">
    <mxGraphModel dx="989" dy="546" grid="1" gridSize="10" guides="1" tooltips="1" connect="1" arrows="1" fold="1" page="1" pageScale="1" pageWidth="850" pageHeight="1100" math="0" shadow="0">
      <root>
        <mxCell id="0" />
        <mxCell id="1" parent="0" />
        <mxCell id="rFmLtM40dtg-Mc_Bdg83-11" value="" style="edgeStyle=orthogonalEdgeStyle;rounded=0;orthogonalLoop=1;jettySize=auto;html=1;fontStyle=1" edge="1" parent="1" source="rFmLtM40dtg-Mc_Bdg83-1" target="rFmLtM40dtg-Mc_Bdg83-2">
          <mxGeometry relative="1" as="geometry" />
        </mxCell>
        <mxCell id="rFmLtM40dtg-Mc_Bdg83-1" value="&lt;span&gt;Data Input From Microcontroller by duration wave&lt;/span&gt;" style="rounded=0;whiteSpace=wrap;html=1;fontStyle=1" vertex="1" parent="1">
          <mxGeometry x="383" y="290" width="120" height="70" as="geometry" />
        </mxCell>
        <mxCell id="rFmLtM40dtg-Mc_Bdg83-12" value="" style="edgeStyle=orthogonalEdgeStyle;rounded=0;orthogonalLoop=1;jettySize=auto;html=1;fontStyle=1" edge="1" parent="1" source="rFmLtM40dtg-Mc_Bdg83-2" target="rFmLtM40dtg-Mc_Bdg83-3">
          <mxGeometry relative="1" as="geometry" />
        </mxCell>
        <mxCell id="rFmLtM40dtg-Mc_Bdg83-2" value="&lt;span&gt;Wave Input&amp;nbsp; process on FFT to Freq Domain&lt;/span&gt;" style="rounded=0;whiteSpace=wrap;html=1;fontStyle=1" vertex="1" parent="1">
          <mxGeometry x="533" y="295" width="110" height="60" as="geometry" />
        </mxCell>
        <mxCell id="rFmLtM40dtg-Mc_Bdg83-22" value="" style="edgeStyle=orthogonalEdgeStyle;rounded=0;orthogonalLoop=1;jettySize=auto;html=1;" edge="1" parent="1" source="rFmLtM40dtg-Mc_Bdg83-3" target="rFmLtM40dtg-Mc_Bdg83-6">
          <mxGeometry relative="1" as="geometry" />
        </mxCell>
        <mxCell id="rFmLtM40dtg-Mc_Bdg83-3" value="&lt;span&gt;Output by Freq Domain&amp;nbsp;&lt;/span&gt;" style="rounded=0;whiteSpace=wrap;html=1;fontStyle=1" vertex="1" parent="1">
          <mxGeometry x="683" y="292.5" width="110" height="65" as="geometry" />
        </mxCell>
        <mxCell id="rFmLtM40dtg-Mc_Bdg83-16" value="" style="edgeStyle=orthogonalEdgeStyle;rounded=0;orthogonalLoop=1;jettySize=auto;html=1;fontStyle=1" edge="1" parent="1" source="rFmLtM40dtg-Mc_Bdg83-4" target="rFmLtM40dtg-Mc_Bdg83-7">
          <mxGeometry relative="1" as="geometry" />
        </mxCell>
        <mxCell id="rFmLtM40dtg-Mc_Bdg83-4" value="&lt;span&gt;Microcontroller read data using serial from Matlab&lt;/span&gt;" style="rounded=0;whiteSpace=wrap;html=1;fontStyle=1" vertex="1" parent="1">
          <mxGeometry x="383" y="410" width="130" height="70" as="geometry" />
        </mxCell>
        <mxCell id="rFmLtM40dtg-Mc_Bdg83-15" value="" style="edgeStyle=orthogonalEdgeStyle;rounded=0;orthogonalLoop=1;jettySize=auto;html=1;fontStyle=1" edge="1" parent="1" source="rFmLtM40dtg-Mc_Bdg83-5" target="rFmLtM40dtg-Mc_Bdg83-4">
          <mxGeometry relative="1" as="geometry" />
        </mxCell>
        <mxCell id="rFmLtM40dtg-Mc_Bdg83-5" value="Data debit push to Microcontroller" style="rounded=0;whiteSpace=wrap;html=1;fontStyle=1" vertex="1" parent="1">
          <mxGeometry x="548" y="410" width="110" height="70" as="geometry" />
        </mxCell>
        <mxCell id="rFmLtM40dtg-Mc_Bdg83-21" value="" style="edgeStyle=orthogonalEdgeStyle;rounded=0;orthogonalLoop=1;jettySize=auto;html=1;" edge="1" parent="1" source="rFmLtM40dtg-Mc_Bdg83-6" target="rFmLtM40dtg-Mc_Bdg83-5">
          <mxGeometry relative="1" as="geometry" />
        </mxCell>
        <mxCell id="rFmLtM40dtg-Mc_Bdg83-6" value="&lt;span&gt;Freq Data convert to debit&amp;nbsp;&lt;/span&gt;" style="rounded=0;whiteSpace=wrap;html=1;fontStyle=1" vertex="1" parent="1">
          <mxGeometry x="688" y="412.5" width="100" height="65" as="geometry" />
        </mxCell>
        <mxCell id="rFmLtM40dtg-Mc_Bdg83-17" value="" style="edgeStyle=orthogonalEdgeStyle;rounded=0;orthogonalLoop=1;jettySize=auto;html=1;fontStyle=1" edge="1" parent="1" source="rFmLtM40dtg-Mc_Bdg83-7" target="rFmLtM40dtg-Mc_Bdg83-8">
          <mxGeometry relative="1" as="geometry" />
        </mxCell>
        <mxCell id="rFmLtM40dtg-Mc_Bdg83-7" value="&lt;span&gt;Measuring the amount of water by debit calculation&lt;/span&gt;" style="rounded=0;whiteSpace=wrap;html=1;fontStyle=1" vertex="1" parent="1">
          <mxGeometry x="203" y="410" width="140" height="70" as="geometry" />
        </mxCell>
        <mxCell id="rFmLtM40dtg-Mc_Bdg83-8" value="&lt;span&gt;Water Debit&lt;br&gt;&lt;/span&gt;" style="rounded=0;whiteSpace=wrap;html=1;fontStyle=1" vertex="1" parent="1">
          <mxGeometry x="63" y="420" width="100" height="50" as="geometry" />
        </mxCell>
        <mxCell id="rFmLtM40dtg-Mc_Bdg83-19" value="" style="edgeStyle=orthogonalEdgeStyle;rounded=0;orthogonalLoop=1;jettySize=auto;html=1;" edge="1" parent="1" source="rFmLtM40dtg-Mc_Bdg83-9" target="rFmLtM40dtg-Mc_Bdg83-18">
          <mxGeometry relative="1" as="geometry" />
        </mxCell>
        <mxCell id="rFmLtM40dtg-Mc_Bdg83-9" value="&lt;span&gt;Microcontroller Read Ultrasonic&amp;nbsp; and convert to duration&lt;/span&gt;" style="rounded=0;whiteSpace=wrap;html=1;fontStyle=1" vertex="1" parent="1">
          <mxGeometry x="63" y="290" width="120" height="70" as="geometry" />
        </mxCell>
        <mxCell id="rFmLtM40dtg-Mc_Bdg83-20" value="" style="edgeStyle=orthogonalEdgeStyle;rounded=0;orthogonalLoop=1;jettySize=auto;html=1;" edge="1" parent="1" target="rFmLtM40dtg-Mc_Bdg83-1">
          <mxGeometry relative="1" as="geometry">
            <mxPoint x="343" y="325" as="sourcePoint" />
          </mxGeometry>
        </mxCell>
        <mxCell id="rFmLtM40dtg-Mc_Bdg83-18" value="&lt;span&gt;Data duration push to Matlab using serial&lt;/span&gt;" style="rounded=0;whiteSpace=wrap;html=1;fontStyle=1" vertex="1" parent="1">
          <mxGeometry x="213" y="290" width="147" height="70" as="geometry" />
        </mxCell>
      </root>
    </mxGraphModel>
  </diagram>
</mxfile>
